<svg xmlns="http://www.w3.org/2000/svg" width="1200" height="1400" viewBox="0 0 1200 1400">
<defs>
 <linearGradient id="bg" x1="0" y1="0" x2="1" y2="1"><stop stop-color="#171322"/><stop offset="1" stop-color="#83495d"/></linearGradient>
 <radialGradient id="glow"><stop stop-color="#f0b397" stop-opacity=".72"/><stop offset="1" stop-color="#f0b397" stop-opacity="0"/></radialGradient>
 <filter id="blur"><feGaussianBlur stdDeviation="26"/></filter>
</defs>
<rect width="1200" height="1400" fill="url(#bg)"/>
<circle cx="936" cy="308" r="384" fill="url(#glow)" filter="url(#blur)"/>
<rect x="0" y="868" width="1200" height="532" fill="#08080c" fill-opacity=".2"/>
<ellipse cx="600" cy="476" rx="144" ry="161" fill="#140f19" fill-opacity=".88"/>
<path d="M 372 1372 C 396 966, 468 742, 600 714 C 744 742, 828 980, 864 1372 Z" fill="#100d15" fill-opacity=".92"/>
<path d="M 408 742 C 456 448, 480 238, 612 224 C 744 238, 792 462, 816 812" fill="none" stroke="#f0b397" stroke-opacity=".28" stroke-width="18"/>
<circle cx="408" cy="1036" r="144" fill="none" stroke="white" stroke-opacity=".07" stroke-width="2"/>
<path d="M0 1176 C 264 1022, 540 1302, 864 1092 S 1200 1134, 1200 1400" fill="#f0b397" fill-opacity=".08"/>
<text x="60" y="1330" fill="white" fill-opacity=".62" font-size="24" font-family="Arial" letter-spacing="4">AFTERGLOW</text>
</svg>